<svg width="84" height="32" viewBox="0 0 84 32" fill="none" xmlns="http://www.w3.org/2000/svg">
<rect width="31.748" height="31.748" fill="white"/>
<path d="M13.4639 18.8835V30.5199H10.8276L6.62302 24.4063H6.55484V30.5199H3.39575V18.8835H6.07757L10.2139 24.9744H10.3048V18.8835H13.4639Z" fill="black"/>
<path d="M44.4623 12.7273V20H42.8146L40.1867 16.179H40.1441V20H38.1697V12.7273H39.8458L42.431 16.5341H42.4879V12.7273H44.4623ZM53.2417 16.3636C53.2417 17.1733 53.0843 17.8563 52.7694 18.4126C52.4545 18.9666 52.0296 19.3868 51.4945 19.6733C50.9595 19.9574 50.3629 20.0994 49.7048 20.0994C49.0419 20.0994 48.4429 19.9562 47.9079 19.6697C47.3752 19.3809 46.9514 18.9595 46.6366 18.4055C46.3241 17.8492 46.1678 17.1686 46.1678 16.3636C46.1678 15.554 46.3241 14.8722 46.6366 14.3182C46.9514 13.7618 47.3752 13.3416 47.9079 13.0575C48.4429 12.7711 49.0419 12.6278 49.7048 12.6278C50.3629 12.6278 50.9595 12.7711 51.4945 13.0575C52.0296 13.3416 52.4545 13.7618 52.7694 14.3182C53.0843 14.8722 53.2417 15.554 53.2417 16.3636ZM51.2104 16.3636C51.2104 15.928 51.1524 15.5611 51.0364 15.2628C50.9228 14.9621 50.7535 14.7348 50.5286 14.581C50.3061 14.4247 50.0315 14.3466 49.7048 14.3466C49.3781 14.3466 49.1023 14.4247 48.8773 14.581C48.6548 14.7348 48.4855 14.9621 48.3695 15.2628C48.2559 15.5611 48.1991 15.928 48.1991 16.3636C48.1991 16.7992 48.2559 17.1674 48.3695 17.468C48.4855 17.7663 48.6548 17.9936 48.8773 18.1499C49.1023 18.3037 49.3781 18.3807 49.7048 18.3807C50.0315 18.3807 50.3061 18.3037 50.5286 18.1499C50.7535 17.9936 50.9228 17.7663 51.0364 17.468C51.1524 17.1674 51.2104 16.7992 51.2104 16.3636ZM54.4146 14.3182V12.7273H60.7356V14.3182H58.5481V20H56.6021V14.3182H54.4146ZM62.2787 20V12.7273H67.5201V14.3182H64.2531V15.5682H67.2503V17.1591H64.2531V18.4091H67.5059V20H62.2787ZM72.0977 20H69.2994V12.7273H72.0693C72.8174 12.7273 73.4637 12.8729 74.0082 13.1641C74.555 13.4529 74.9764 13.8696 75.2724 14.4141C75.5707 14.9562 75.7198 15.6061 75.7198 16.3636C75.7198 17.1212 75.5719 17.7723 75.2759 18.3168C74.98 18.8589 74.561 19.2756 74.0188 19.5668C73.4767 19.8556 72.8363 20 72.0977 20ZM71.2738 18.3239H72.0266C72.3865 18.3239 72.6931 18.2659 72.9464 18.1499C73.2021 18.0339 73.3962 17.8338 73.5288 17.5497C73.6637 17.2656 73.7312 16.8703 73.7312 16.3636C73.7312 15.857 73.6625 15.4616 73.5252 15.1776C73.3903 14.8935 73.1914 14.6934 72.9286 14.5774C72.6682 14.4614 72.3486 14.4034 71.9698 14.4034H71.2738V18.3239Z" fill="white"/>
</svg>
