<svg width="24" height="24" viewBox="0 0 24 24" fill="none" xmlns="http://www.w3.org/2000/svg">
<path d="M15.0293 5.32818C14.8596 5.15844 14.6437 5.0789 14.4286 5.0789C14.2162 5.0789 13.9885 5.15676 13.8267 5.3294C13.4988 5.65858 13.4992 6.20096 13.8279 6.52961L19.2972 11.9989L13.8279 17.4682C13.4988 17.7972 13.4988 18.3406 13.8279 18.6696C14.1569 18.9987 14.7003 18.9987 15.0293 18.6696L21.0993 12.5996C21.4284 12.2706 21.4284 11.7272 21.0993 11.3982L15.0293 5.32818Z" fill="#C2C2C2" stroke="#C2C2C2" stroke-width="0.2"/>
<path d="M20.3281 11.15L3.49811 11.15C3.03288 11.15 2.64811 11.5348 2.64811 12C2.64811 12.4652 3.03288 12.85 3.49811 12.85L20.3281 12.85C20.7934 12.85 21.1781 12.4652 21.1781 12C21.1781 11.5348 20.7934 11.15 20.3281 11.15Z" fill="#C2C2C2" stroke="#C2C2C2" stroke-width="0.2"/>
</svg>
