<svg width="333" height="304" viewBox="0 0 333 304" fill="none" xmlns="http://www.w3.org/2000/svg">
<rect x="165.253" y="8.62839" width="169.115" height="275.439" rx="4" transform="rotate(7.29318 165.253 8.62839)" fill="#0F0F0F"/>
<path d="M231.142 38.8909C231.154 38.488 231.024 38.1573 230.753 37.8988C230.482 37.6402 230.09 37.4781 229.577 37.4125C229.229 37.3679 228.928 37.3796 228.676 37.4475C228.423 37.5121 228.222 37.6217 228.072 37.7762C227.925 37.9312 227.838 38.1172 227.81 38.3341C227.781 38.5141 227.798 38.6768 227.863 38.8221C227.931 38.9678 228.033 39.0994 228.168 39.217C228.304 39.3313 228.464 39.437 228.649 39.5341C228.834 39.628 229.034 39.7137 229.248 39.7912L230.127 40.1243C230.555 40.2793 230.943 40.4626 231.29 40.6741C231.637 40.8856 231.93 41.1286 232.169 41.4031C232.408 41.6776 232.581 41.987 232.687 42.3314C232.796 42.6762 232.826 43.0593 232.775 43.4805C232.693 44.0981 232.467 44.6138 232.096 45.0275C231.729 45.4384 231.238 45.7313 230.62 45.9062C230.007 46.0783 229.289 46.1118 228.467 46.0066C227.652 45.9023 226.958 45.6865 226.385 45.3592C225.815 45.0323 225.393 44.6023 225.117 44.0691C224.844 43.5331 224.747 42.9007 224.823 42.172L226.889 42.4365C226.869 42.7781 226.93 43.0732 227.072 43.3219C227.217 43.5678 227.427 43.7668 227.702 43.9188C227.98 44.0681 228.304 44.1662 228.672 44.2134C229.033 44.2596 229.354 44.2472 229.634 44.1761C229.917 44.1054 230.144 43.9858 230.316 43.8174C230.488 43.6489 230.59 43.443 230.621 43.1998C230.65 42.9729 230.607 42.7736 230.492 42.6018C230.38 42.4305 230.203 42.2742 229.961 42.1329C229.721 41.992 229.423 41.8536 229.066 41.7177L228.002 41.3008C227.177 40.9847 226.546 40.5748 226.109 40.0712C225.673 39.5675 225.504 38.9428 225.602 38.1969C225.677 37.585 225.909 37.0716 226.296 36.6567C226.686 36.2422 227.187 35.9438 227.799 35.7614C228.41 35.579 229.084 35.535 229.821 35.6292C230.57 35.7252 231.208 35.9371 231.734 36.2651C232.263 36.5934 232.655 37.0061 232.909 37.5031C233.163 38 233.256 38.5499 233.189 39.1528L231.142 38.8909ZM234.525 38.161L234.75 36.4005L243.045 37.462L242.82 39.2225L239.728 38.8268L238.66 47.1658L236.55 46.8956L237.617 38.5567L234.525 38.161ZM243.625 47.8012L241.337 47.5083L246.116 37.8551L248.868 38.2072L251.057 48.7523L248.768 48.4594L247.236 40.3441L247.157 40.334L243.625 47.8012ZM243.99 43.8131L249.395 44.5048L249.181 46.1716L243.777 45.4799L243.99 43.8131ZM251.721 40.3617L251.946 38.6012L260.24 39.6628L260.015 41.4233L256.923 41.0276L255.856 49.3665L253.745 49.0964L254.813 40.7574L251.721 40.3617ZM263.742 40.1109L262.449 50.2103L260.314 49.937L261.606 39.8376L263.742 40.1109ZM270.606 43.9415C270.617 43.5386 270.487 43.2079 270.216 42.9494C269.945 42.6908 269.553 42.5287 269.041 42.4631C268.692 42.4185 268.392 42.4301 268.139 42.498C267.887 42.5627 267.686 42.6723 267.535 42.8268C267.389 42.9818 267.301 43.1677 267.274 43.3847C267.244 43.5647 267.261 43.7273 267.326 43.8726C267.395 44.0184 267.496 44.15 267.632 44.2676C267.767 44.3819 267.928 44.4876 268.112 44.5847C268.298 44.6786 268.497 44.7643 268.711 44.8418L269.591 45.1749C270.019 45.3299 270.406 45.5131 270.753 45.7246C271.1 45.9362 271.393 46.1792 271.632 46.4536C271.871 46.7281 272.044 47.0376 272.15 47.382C272.26 47.7268 272.289 48.1098 272.239 48.5311C272.156 49.1487 271.93 49.6644 271.559 50.0781C271.193 50.489 270.701 50.7819 270.084 50.9568C269.47 51.1289 268.753 51.1624 267.931 51.0572C267.115 50.9528 266.421 50.737 265.848 50.4098C265.279 50.0829 264.856 49.6529 264.58 49.1197C264.308 48.5836 264.21 47.9513 264.286 47.2226L266.353 47.4871C266.332 47.8286 266.393 48.1238 266.535 48.3725C266.681 48.6184 266.891 48.8173 267.165 48.9694C267.444 49.1187 267.767 49.2168 268.135 49.2639C268.497 49.3102 268.817 49.2978 269.097 49.2267C269.38 49.156 269.608 49.0364 269.78 48.868C269.952 48.6995 270.053 48.4936 270.084 48.2503C270.113 48.0235 270.07 47.8242 269.955 47.6524C269.843 47.4811 269.666 47.3248 269.424 47.1834C269.185 47.0426 268.887 46.9042 268.53 46.7683L267.465 46.3514C266.64 46.0353 266.009 45.6254 265.573 45.1218C265.136 44.6181 264.967 43.9934 265.066 43.2475C265.141 42.6356 265.372 42.1222 265.759 41.7073C266.15 41.2928 266.651 40.9944 267.262 40.812C267.873 40.6296 268.547 40.5856 269.284 40.6798C270.033 40.7757 270.671 40.9877 271.197 41.3157C271.727 41.644 272.118 42.0567 272.372 42.5536C272.626 43.0506 272.719 43.6005 272.652 44.2034L270.606 43.9415ZM273.988 43.2116L274.214 41.4511L282.508 42.5126L282.283 44.2731L279.191 43.8774L278.124 52.2164L276.013 51.9462L277.08 43.6073L273.988 43.2116ZM286.009 42.9607L284.717 53.0602L282.582 52.7869L283.874 42.6874L286.009 42.9607ZM296.225 47.8618L294.065 47.5854C294.061 47.3009 294.012 47.0424 293.918 46.8098C293.825 46.574 293.693 46.3666 293.522 46.1877C293.351 46.0088 293.146 45.8622 292.906 45.748C292.67 45.6343 292.408 45.5589 292.118 45.5219C291.596 45.455 291.124 45.5266 290.703 45.7366C290.282 45.9434 289.933 46.2797 289.656 46.7455C289.38 47.208 289.197 47.7894 289.107 48.4896C289.015 49.2096 289.045 49.8282 289.196 50.3454C289.35 50.863 289.605 51.2716 289.961 51.5711C290.317 51.8706 290.75 52.0529 291.259 52.1182C291.545 52.1548 291.815 52.1508 292.068 52.1064C292.324 52.0623 292.557 51.9801 292.766 51.8599C292.975 51.7364 293.156 51.5774 293.308 51.383C293.463 51.189 293.583 50.9603 293.666 50.6971L295.825 50.9834C295.71 51.4398 295.513 51.869 295.234 52.271C294.959 52.6702 294.613 53.0152 294.195 53.3058C293.78 53.5936 293.302 53.8031 292.761 53.9343C292.223 54.0626 291.631 54.0853 290.983 54.0025C290.082 53.8872 289.303 53.5803 288.645 53.0817C287.99 52.5836 287.507 51.9219 287.195 51.0968C286.886 50.272 286.802 49.3106 286.942 48.2126C287.083 47.1112 287.41 46.2008 287.923 45.4812C288.437 44.7616 289.074 44.2451 289.836 43.9316C290.598 43.6148 291.423 43.5133 292.311 43.6269C292.896 43.7018 293.428 43.8534 293.907 44.0817C294.389 44.3105 294.803 44.6075 295.151 44.9727C295.499 45.3347 295.765 45.7581 295.951 46.2429C296.139 46.7281 296.23 47.2678 296.225 47.8618ZM303.315 48.1277C303.327 47.7249 303.197 47.3942 302.926 47.1356C302.655 46.8771 302.263 46.715 301.75 46.6493C301.402 46.6047 301.101 46.6164 300.849 46.6843C300.596 46.7489 300.395 46.8585 300.245 47.0131C300.098 47.168 300.011 47.354 299.983 47.571C299.954 47.751 299.971 47.9136 300.036 48.0589C300.104 48.2046 300.206 48.3363 300.342 48.4538C300.477 48.5681 300.637 48.6738 300.822 48.771C301.007 48.8648 301.207 48.9505 301.421 49.028L302.3 49.3611C302.728 49.5161 303.116 49.6994 303.463 49.9109C303.81 50.1224 304.103 50.3654 304.342 50.6399C304.581 50.9144 304.754 51.2238 304.86 51.5683C304.969 51.9131 304.999 52.2961 304.948 52.7173C304.866 53.335 304.64 53.8507 304.269 54.2644C303.903 54.6752 303.411 54.9681 302.793 55.1431C302.18 55.3152 301.462 55.3486 300.64 55.2435C299.825 55.1391 299.131 54.9233 298.558 54.596C297.988 54.2692 297.566 53.8391 297.29 53.306C297.017 52.7699 296.92 52.1376 296.996 51.4089L299.062 51.6733C299.042 52.0149 299.103 52.31 299.245 52.5588C299.39 52.8046 299.601 53.0036 299.875 53.1557C300.153 53.3049 300.477 53.4031 300.845 53.4502C301.206 53.4965 301.527 53.4841 301.807 53.4129C302.09 53.3422 302.317 53.2227 302.489 53.0542C302.661 52.8858 302.763 52.6799 302.794 52.4366C302.823 52.2098 302.78 52.0105 302.665 51.8387C302.553 51.6673 302.376 51.511 302.134 51.3697C301.894 51.2288 301.596 51.0904 301.239 50.9545L300.175 50.5376C299.35 50.2216 298.719 49.8117 298.282 49.308C297.846 48.8044 297.677 48.1796 297.776 47.4338C297.851 46.8219 298.082 46.3085 298.469 45.8936C298.859 45.4791 299.36 45.1807 299.972 44.9983C300.583 44.8159 301.257 44.7718 301.994 44.8661C302.743 44.962 303.381 45.174 303.907 45.5019C304.436 45.8303 304.828 46.243 305.082 46.7399C305.336 47.2368 305.429 47.7868 305.362 48.3896L303.315 48.1277Z" fill="#949494"/>
<rect x="162.916" y="202.637" width="8.37202" height="63.6273" rx="2" transform="rotate(7.29318 162.916 202.637)" fill="#292929"/>
<rect x="176.994" y="217.943" width="8.37202" height="50.2321" rx="2" transform="rotate(7.29318 176.994 217.943)" fill="#292929"/>
<rect x="193.835" y="211.658" width="8.37202" height="58.6041" rx="2" transform="rotate(7.29318 193.835 211.658)" fill="#292929"/>
<rect x="206" y="241.912" width="8.37202" height="30.1393" rx="2" transform="rotate(7.29318 206 241.912)" fill="#292929"/>
<rect x="239.721" y="215.843" width="49.3949" height="1.6744" rx="0.837201" transform="rotate(7.29318 239.721 215.843)" fill="#292929"/>
<rect x="238.127" y="228.299" width="49.3949" height="1.6744" rx="0.837201" transform="rotate(7.29318 238.127 228.299)" fill="#292929"/>
<rect x="239.19" y="219.995" width="49.3949" height="1.6744" rx="0.837201" transform="rotate(7.29318 239.19 219.995)" fill="#292929"/>
<rect x="237.595" y="232.451" width="49.3949" height="1.6744" rx="0.837201" transform="rotate(7.29318 237.595 232.451)" fill="#292929"/>
<rect x="238.659" y="224.147" width="49.3949" height="1.6744" rx="0.837201" transform="rotate(7.29318 238.659 224.147)" fill="#292929"/>
<rect x="237.063" y="236.603" width="49.3949" height="1.6744" rx="0.837201" transform="rotate(7.29318 237.063 236.603)" fill="#292929"/>
<rect x="236.532" y="240.755" width="39.3484" height="35.9997" rx="2" transform="rotate(7.29318 236.532 240.755)" fill="#292929"/>
<rect x="278.054" y="246.07" width="7.53481" height="35.9997" rx="2" transform="rotate(7.29318 278.054 246.07)" fill="#292929"/>
<rect x="180.21" y="65.844" width="127.255" height="127.255" rx="2" transform="rotate(7.29318 180.21 65.844)" fill="#292929"/>
<g clip-path="url(#clip0_3_162)">
<path d="M243.525 156.239L222.316 153.525C219.791 153.202 217.646 151.627 216.594 149.298C215.541 146.969 215.761 144.33 217.182 142.199L220.772 136.835C221.94 135.094 223.583 134.122 225.284 134.154C226.985 134.186 228.589 135.236 229.679 137.012L229.985 137.524C230.601 138.515 231.386 139.105 232.227 139.128C233.066 139.168 233.906 138.668 234.601 137.727L238.465 132.465C240.06 130.289 241.942 129.298 243.808 129.621C245.656 129.959 247.072 131.558 247.82 134.152L251.465 146.958C252.141 149.323 251.581 151.851 249.974 153.722C248.38 155.628 245.966 156.551 243.525 156.239ZM225.43 136.705C225.364 136.697 225.297 136.688 225.229 136.696C224.388 136.673 223.539 137.239 222.853 138.249L219.263 143.613C218.326 144.996 218.186 146.75 218.869 148.273C219.552 149.795 220.971 150.837 222.632 151.05L243.825 153.762C245.452 153.97 246.997 153.375 248.068 152.128C249.14 150.881 249.497 149.272 249.041 147.694L245.396 134.888C244.956 133.313 244.193 132.287 243.35 132.145C242.576 131.995 241.457 132.696 240.479 134.006L236.615 139.267C235.431 140.871 233.781 141.758 232.118 141.697C230.456 141.619 228.881 140.607 227.835 138.887L227.529 138.375C226.949 137.372 226.211 136.805 225.43 136.705Z" fill="#949494"/>
<path d="M227.58 130.567C224.158 130.129 221.709 126.979 222.149 123.541C222.589 120.103 225.736 117.67 229.174 118.11C232.612 118.55 235.045 121.697 234.605 125.135C234.165 128.573 231.018 131.007 227.58 130.567ZM228.855 120.601C226.796 120.338 224.904 121.801 224.64 123.86C224.376 125.92 225.839 127.812 227.899 128.075C229.958 128.339 231.85 126.876 232.114 124.817C232.377 122.757 230.915 120.865 228.855 120.601Z" fill="#949494"/>
</g>
<rect y="30.545" width="169.115" height="275.439" rx="4" transform="rotate(-7.74122 0 30.545)" fill="#0F0F0F"/>
<path d="M48.9884 50.6114L47.6169 40.5224L51.5973 39.9813C52.3593 39.8777 53.0281 39.9256 53.6037 40.125C54.1822 40.3206 54.6464 40.6472 54.9962 41.1047C55.3489 41.5585 55.5706 42.1188 55.6612 42.7855C55.7523 43.4554 55.6862 44.0514 55.4628 44.5735C55.2389 45.0923 54.8702 45.517 54.3566 45.8478C53.8462 46.178 53.2035 46.3959 52.4284 46.5012L49.7633 46.8635L49.5303 45.1492L51.8506 44.8337C52.2578 44.7784 52.5885 44.6766 52.8426 44.5283C53.0967 44.38 53.2743 44.1853 53.3753 43.9441C53.4796 43.7025 53.5092 43.4158 53.4641 43.0841C53.4186 42.7491 53.3128 42.4758 53.1469 42.2643C52.9843 42.0522 52.7587 41.9056 52.47 41.8244C52.1842 41.7395 51.836 41.725 51.4255 41.7808L49.987 41.9763L51.1215 50.3215L48.9884 50.6114ZM53.8127 45.2795L56.9443 49.5299L54.5896 49.85L51.5121 45.5922L53.8127 45.2795ZM58.0921 49.3739L56.7207 39.2849L63.5189 38.3607L63.758 40.1194L59.0928 40.7536L59.4196 43.1576L63.735 42.571L63.9741 44.3296L59.6587 44.9163L59.9862 47.3252L64.671 46.6884L64.9101 48.4471L58.0921 49.3739ZM67.0375 37.8824L70.518 45.2162L70.6116 45.2035L72.0131 37.206L74.3777 36.8846L72.2712 47.4464L69.5224 47.8201L64.668 38.2045L67.0375 37.8824ZM77.7251 36.4295L79.0966 46.5186L76.9635 46.8085L75.592 36.7195L77.7251 36.4295ZM80.8516 46.28L79.4801 36.191L86.2784 35.2668L86.5174 37.0255L81.8522 37.6597L82.179 40.0637L86.4945 39.4771L86.7335 41.2358L82.4181 41.8224L82.7456 44.2314L87.4305 43.5945L87.6695 45.3532L80.8516 46.28ZM91.6167 44.8166L87.3584 35.12L89.6886 34.8033L92.3115 41.5863L92.3953 41.575L93.2848 34.3144L95.2799 34.0432L98.0724 40.8183L98.161 40.8062L98.8761 33.5543L101.206 33.2376L99.6909 43.719L97.612 44.0016L94.7941 37.6665L94.7153 37.6772L93.6956 44.534L91.6167 44.8166ZM108.121 35.2528C108.027 34.8608 107.816 34.5751 107.487 34.3957C107.159 34.2163 106.738 34.1614 106.226 34.231C105.878 34.2784 105.59 34.3676 105.364 34.4987C105.137 34.6265 104.971 34.7845 104.866 34.9727C104.765 35.1605 104.729 35.3627 104.758 35.5795C104.776 35.761 104.835 35.9135 104.936 36.037C105.04 36.16 105.172 36.2608 105.333 36.3392C105.494 36.4144 105.676 36.4749 105.88 36.5208C106.083 36.5634 106.298 36.5944 106.524 36.6138L107.46 36.7073C107.914 36.746 108.336 36.8225 108.726 36.9367C109.116 37.0509 109.462 37.2096 109.764 37.4127C110.066 37.6158 110.313 37.8699 110.505 38.175C110.7 38.4796 110.828 38.8418 110.888 39.2618C110.969 39.8796 110.884 40.4364 110.634 40.932C110.386 41.4239 109.987 41.8344 109.436 42.1635C108.888 42.4888 108.204 42.7073 107.383 42.8189C106.569 42.9296 105.842 42.9012 105.204 42.7338C104.569 42.5659 104.049 42.2602 103.644 41.8169C103.242 41.3698 102.984 40.7845 102.869 40.0609L104.933 39.7803C105.002 40.1154 105.137 40.3847 105.339 40.5881C105.543 40.7878 105.798 40.9254 106.102 41.0011C106.41 41.073 106.747 41.084 107.115 41.034C107.477 40.9849 107.783 40.8897 108.035 40.7484C108.29 40.6067 108.478 40.4322 108.601 40.225C108.723 40.0177 108.768 39.7925 108.735 39.5495C108.704 39.3229 108.611 39.1415 108.455 39.0055C108.303 38.869 108.091 38.764 107.82 38.6904C107.553 38.6164 107.229 38.5601 106.849 38.5214L105.713 38.3949C104.834 38.3036 104.119 38.0714 103.566 37.6983C103.014 37.3252 102.688 36.7656 102.59 36.0197C102.504 35.4093 102.594 34.8535 102.86 34.3523C103.13 33.8507 103.537 33.4326 104.08 33.0978C104.623 32.7631 105.262 32.5457 105.998 32.4457C106.747 32.3439 107.418 32.3832 108.011 32.5634C108.607 32.7433 109.093 33.0402 109.467 33.4543C109.841 33.8684 110.073 34.3753 110.165 34.9749L108.121 35.2528Z" fill="#949494"/>
<rect x="48.068" y="218.519" width="8.37202" height="63.6273" rx="2" transform="rotate(-7.74122 48.068 218.519)" fill="#292929"/>
<rect x="65.6344" y="229.65" width="8.37202" height="50.2321" rx="2" transform="rotate(-7.74122 65.6344 229.65)" fill="#292929"/>
<rect x="80.2684" y="219.211" width="8.37202" height="58.6041" rx="2" transform="rotate(-7.74122 80.2684 219.211)" fill="#292929"/>
<rect x="99.8651" y="245.274" width="8.37202" height="30.1393" rx="2" transform="rotate(-7.74122 99.8651 245.274)" fill="#292929"/>
<rect x="125.669" y="211.35" width="49.3949" height="1.6744" rx="0.837201" transform="rotate(-7.74122 125.669 211.35)" fill="#292929"/>
<rect x="127.362" y="223.793" width="49.3949" height="1.6744" rx="0.837201" transform="rotate(-7.74122 127.362 223.793)" fill="#292929"/>
<rect x="126.234" y="215.498" width="49.3949" height="1.6744" rx="0.837201" transform="rotate(-7.74122 126.234 215.498)" fill="#292929"/>
<rect x="127.925" y="227.941" width="49.3949" height="1.6744" rx="0.837201" transform="rotate(-7.74122 127.925 227.941)" fill="#292929"/>
<rect x="126.797" y="219.645" width="49.3949" height="1.6744" rx="0.837201" transform="rotate(-7.74122 126.797 219.645)" fill="#292929"/>
<rect x="128.488" y="232.089" width="49.3949" height="1.6744" rx="0.837201" transform="rotate(-7.74122 128.488 232.089)" fill="#292929"/>
<rect x="129.052" y="236.237" width="39.3484" height="35.9997" rx="2" transform="rotate(-7.74122 129.052 236.237)" fill="#292929"/>
<rect x="170.532" y="230.598" width="7.53481" height="35.9997" rx="2" transform="rotate(-7.74122 170.532 230.598)" fill="#292929"/>
<rect x="29.2867" y="81.9226" width="127.255" height="127.255" rx="2" transform="rotate(-7.74122 29.2867 81.9226)" fill="#292929"/>
<path d="M113.882 152.8L92.6947 155.68C90.1729 156.023 87.693 155.059 86.0725 153.082C84.4519 151.106 83.9795 148.5 84.7987 146.074L86.8743 139.962C87.5508 137.977 88.8861 136.613 90.5371 136.202C92.188 135.792 94.0097 136.389 95.5226 137.823L95.9508 138.238C96.8026 139.034 97.7141 139.401 98.5324 139.205C99.3529 139.026 100.035 138.325 100.461 137.236L102.828 131.152C103.804 128.637 105.365 127.191 107.251 127.019C109.123 126.866 110.905 128.043 112.301 130.354L119.143 141.777C120.409 143.886 120.525 146.472 119.458 148.696C118.413 150.95 116.321 152.468 113.882 152.8ZM91.3399 138.628C91.2736 138.637 91.2072 138.646 91.1431 138.672C90.3248 138.867 89.6518 139.635 89.2509 140.788L87.1753 146.9C86.6294 148.478 86.9492 150.209 88.0037 151.502C89.0581 152.795 90.6995 153.433 92.3587 153.208L113.529 150.33C115.155 150.109 116.493 149.133 117.204 147.65C117.915 146.168 117.843 144.522 116.993 143.117L110.151 131.694C109.318 130.287 108.314 129.494 107.464 129.576C106.677 129.632 105.778 130.599 105.173 132.118L102.806 138.201C102.079 140.058 100.715 141.341 99.0931 141.714C97.4687 142.07 95.6847 141.501 94.2283 140.111L93.8002 139.696C92.9793 138.878 92.1197 138.522 91.3399 138.628Z" fill="#949494"/>
<path d="M91.8235 132.142C88.4057 132.607 85.2228 130.2 84.7559 126.766C84.2891 123.332 86.6975 120.165 90.1319 119.698C93.5664 119.232 96.7327 121.64 97.1996 125.074C97.6665 128.509 95.2579 131.675 91.8235 132.142ZM90.4703 122.187C88.4129 122.467 86.965 124.37 87.2446 126.428C87.5243 128.485 89.4278 129.933 91.4852 129.653C93.5425 129.374 94.9905 127.47 94.7108 125.413C94.4311 123.355 92.5276 121.907 90.4703 122.187Z" fill="#949494"/>
<rect x="71.6143" width="186.371" height="303.545" rx="4" fill="#171717"/>
<path d="M150.214 20.3481V30.53H148.354L143.925 24.1216H143.85V30.53H141.697V20.3481H143.587L147.982 26.7516H148.071V20.3481H150.214ZM161.349 25.4391C161.349 26.5494 161.138 27.494 160.718 28.2729C160.3 29.0517 159.73 29.6467 159.007 30.0577C158.288 30.4653 157.479 30.6692 156.581 30.6692C155.676 30.6692 154.864 30.4637 154.145 30.0527C153.426 29.6417 152.857 29.0468 152.44 28.2679C152.022 27.489 151.813 26.5461 151.813 25.4391C151.813 24.3287 152.022 23.3841 152.44 22.6053C152.857 21.8264 153.426 21.2331 154.145 20.8254C154.864 20.4144 155.676 20.2089 156.581 20.2089C157.479 20.2089 158.288 20.4144 159.007 20.8254C159.73 21.2331 160.3 21.8264 160.718 22.6053C161.138 23.3841 161.349 24.3287 161.349 25.4391ZM159.166 25.4391C159.166 24.7198 159.059 24.1133 158.843 23.6195C158.631 23.1256 158.331 22.7511 157.943 22.4959C157.556 22.2407 157.102 22.1131 156.581 22.1131C156.061 22.1131 155.607 22.2407 155.219 22.4959C154.831 22.7511 154.53 23.1256 154.314 23.6195C154.102 24.1133 153.996 24.7198 153.996 25.4391C153.996 26.1583 154.102 26.7648 154.314 27.2587C154.53 27.7525 154.831 28.127 155.219 28.3822C155.607 28.6374 156.061 28.7651 156.581 28.7651C157.102 28.7651 157.556 28.6374 157.943 28.3822C158.331 28.127 158.631 27.7525 158.843 27.2587C159.059 26.7648 159.166 26.1583 159.166 25.4391ZM162.091 22.123V20.3481H170.453V22.123H167.336V30.53H165.208V22.123H162.091ZM171.83 30.53V20.3481H178.691V22.123H173.983V24.5491H178.338V26.324H173.983V28.7551H178.711V30.53H171.83ZM185.926 23.2764C185.886 22.8754 185.715 22.5638 185.414 22.3418C185.112 22.1197 184.703 22.0087 184.186 22.0087C183.835 22.0087 183.538 22.0584 183.296 22.1578C183.054 22.2539 182.868 22.3882 182.739 22.5605C182.613 22.7329 182.55 22.9284 182.55 23.1472C182.544 23.3294 182.582 23.4885 182.665 23.6244C182.751 23.7603 182.868 23.878 183.018 23.9774C183.167 24.0735 183.339 24.158 183.535 24.231C183.73 24.3006 183.939 24.3602 184.161 24.4099L185.076 24.6287C185.52 24.7281 185.928 24.8607 186.299 25.0264C186.67 25.1921 186.992 25.396 187.263 25.6379C187.535 25.8799 187.746 26.1649 187.895 26.493C188.047 26.8212 188.125 27.1973 188.128 27.6216C188.125 28.2447 187.966 28.7849 187.651 29.2423C187.34 29.6964 186.889 30.0494 186.299 30.3013C185.712 30.5499 185.005 30.6741 184.176 30.6741C183.354 30.6741 182.638 30.5482 182.028 30.2963C181.422 30.0444 180.948 29.6715 180.606 29.1777C180.268 28.6805 180.091 28.0657 180.074 27.3332H182.157C182.181 27.6746 182.278 27.9597 182.451 28.1883C182.626 28.4137 182.86 28.5844 183.152 28.7004C183.447 28.8131 183.78 28.8695 184.151 28.8695C184.516 28.8695 184.832 28.8164 185.101 28.7104C185.372 28.6043 185.583 28.4568 185.732 28.2679C185.881 28.079 185.956 27.8619 185.956 27.6166C185.956 27.3879 185.888 27.1957 185.752 27.0399C185.619 26.8841 185.424 26.7516 185.165 26.6422C184.91 26.5328 184.597 26.4334 184.226 26.3439L183.117 26.0655C182.259 25.8567 181.581 25.5302 181.084 25.0861C180.586 24.6419 180.34 24.0437 180.343 23.2913C180.34 22.6749 180.504 22.1363 180.835 21.6756C181.17 21.2149 181.629 20.8553 182.212 20.5967C182.796 20.3382 183.458 20.2089 184.201 20.2089C184.956 20.2089 185.616 20.3382 186.18 20.5967C186.746 20.8553 187.187 21.2149 187.502 21.6756C187.817 22.1363 187.979 22.6699 187.989 23.2764H185.926Z" fill="#949494"/>
<line x1="95.6028" y1="49.3221" x2="235.842" y2="49.3221" stroke="#E3E3E3"/>
<line x1="95.6028" y1="59.4709" x2="235.842" y2="59.4709" stroke="#E3E3E3"/>
<line x1="95.6028" y1="69.6198" x2="235.842" y2="69.6198" stroke="#E3E3E3"/>
<line x1="95.6028" y1="79.7689" x2="235.842" y2="79.7689" stroke="#949494"/>
<line x1="95.6028" y1="89.9178" x2="235.842" y2="89.9178" stroke="#949494"/>
<line x1="95.6028" y1="110.216" x2="235.842" y2="110.216" stroke="#949494"/>
<line x1="95.6028" y1="100.067" x2="235.842" y2="100.067" stroke="#949494"/>
<line x1="95.6028" y1="120.365" x2="235.842" y2="120.365" stroke="#949494"/>
<circle cx="90.9904" cy="48.8994" r="0.92263" fill="#E3E3E3"/>
<circle cx="90.9904" cy="89.4951" r="0.92263" fill="#949494"/>
<circle cx="90.9904" cy="69.1972" r="0.92263" fill="#E3E3E3"/>
<circle cx="90.9904" cy="109.793" r="0.92263" fill="#949494"/>
<circle cx="90.9904" cy="59.0484" r="0.92263" fill="#E3E3E3"/>
<circle cx="90.9904" cy="99.644" r="0.92263" fill="#949494"/>
<circle cx="90.9904" cy="79.3463" r="0.92263" fill="#949494"/>
<circle cx="90.9904" cy="119.942" r="0.92263" fill="#949494"/>
<rect x="95.6028" y="131.936" width="140.24" height="140.24" rx="2" fill="#292929"/>
<path d="M177.461 221.891H153.897C151.092 221.891 148.527 220.471 147.051 218.072C145.575 215.673 145.446 212.757 146.701 210.229L149.874 203.863C150.908 201.797 152.569 200.505 154.432 200.302C156.296 200.099 158.197 201.022 159.636 202.811L160.042 203.328C160.854 204.325 161.795 204.86 162.717 204.767C163.64 204.694 164.489 204.029 165.116 202.904L168.604 196.611C170.043 194.01 171.962 192.663 174.047 192.755C176.114 192.866 177.885 194.416 179.066 197.147L184.842 210.635C185.912 213.126 185.654 215.968 184.159 218.238C182.683 220.544 180.174 221.891 177.461 221.891ZM154.949 203.07C154.875 203.07 154.801 203.07 154.727 203.088C153.805 203.18 152.956 203.919 152.347 205.118L149.173 211.484C148.343 213.126 148.435 215.064 149.395 216.632C150.354 218.201 152.052 219.142 153.897 219.142H177.443C179.251 219.142 180.856 218.275 181.853 216.762C182.849 215.248 183.015 213.44 182.296 211.779L176.52 198.291C175.819 196.63 174.841 195.615 173.9 195.578C173.032 195.523 171.907 196.445 171.021 198.014L167.534 204.306C166.463 206.225 164.784 207.425 162.957 207.591C161.131 207.738 159.267 206.853 157.883 205.118L157.477 204.601C156.702 203.586 155.816 203.07 154.949 203.07Z" fill="#949494"/>
<path d="M156.44 196.059C152.639 196.059 149.52 192.959 149.52 189.139C149.52 185.319 152.62 182.219 156.44 182.219C160.259 182.219 163.36 185.319 163.36 189.139C163.36 192.959 160.259 196.059 156.44 196.059ZM156.44 184.987C154.152 184.987 152.288 186.851 152.288 189.139C152.288 191.427 154.152 193.291 156.44 193.291C158.728 193.291 160.592 191.427 160.592 189.139C160.592 186.851 158.728 184.987 156.44 184.987Z" fill="#949494"/>
<defs>
<clipPath id="clip0_3_162">
<rect width="40.1857" height="40.1857" fill="white" transform="translate(217.866 114.553) rotate(7.29318)"/>
</clipPath>
</defs>
</svg>
